<?xml version="1.0" standalone="no"?>
<!DOCTYPE svg PUBLIC "-//W3C//DTD SVG 20010904//EN"
 "http://www.w3.org/TR/2001/REC-SVG-20010904/DTD/svg10.dtd">
<svg version="1.0" xmlns="http://www.w3.org/2000/svg"
 width="270.000000pt" height="270.000000pt" viewBox="0 0 270.000000 270.000000"
 preserveAspectRatio="xMidYMid meet">
<metadata>
Created by potrace 1.14, written by Peter Selinger 2001-2017
</metadata>
<g transform="translate(0.000000,270.000000) scale(0.100000,-0.100000)"
fill="#000000" stroke="none">
<path d="M1337 1974 c-4 -4 -7 -20 -7 -36 0 -45 -13 -62 -105 -133 -46 -36
-95 -79 -109 -95 -22 -27 -23 -34 -14 -67 5 -21 27 -76 49 -122 29 -62 41
-105 49 -170 6 -47 13 -98 16 -113 l5 -27 -60 20 c-116 40 -175 9 -152 -78 24
-88 127 -163 224 -163 63 0 59 22 -5 31 -57 9 -83 22 -130 67 -38 36 -65 93
-53 112 12 19 25 10 25 -19 0 -38 31 -75 86 -101 32 -16 56 -21 80 -17 29 5
37 2 50 -18 55 -84 217 -88 321 -9 49 37 84 95 86 142 2 73 -29 86 -143 56
-34 -8 -63 -14 -65 -12 -2 2 3 51 11 108 11 81 23 125 53 190 21 47 44 102 49
123 10 35 8 41 -18 71 -32 36 -172 146 -186 146 -5 0 -15 23 -22 52 -12 54
-24 73 -35 62z m55 -160 c7 -9 39 -44 71 -78 54 -57 58 -64 54 -99 -7 -54 -51
-117 -82 -117 -24 0 -24 1 -9 35 47 113 -16 214 -114 182 -68 -22 -93 -125
-42 -172 24 -22 36 -14 21 13 -27 51 -3 114 49 126 24 7 24 6 -2 -9 -34 -19
-43 -53 -30 -107 24 -93 -60 -92 -108 1 -38 73 -37 74 68 160 53 44 100 80
104 80 4 1 13 -6 20 -15z m65 -483 c-8 -62 -17 -96 -26 -99 -9 -3 -11 2 -8 14
3 11 8 44 12 74 6 51 24 115 30 108 2 -2 -2 -45 -8 -97z m194 -173 c-14 -43
-74 -102 -123 -123 -41 -17 -145 -20 -168 -5 -10 7 7 10 58 10 52 0 84 6 111
19 48 25 100 84 108 122 4 20 9 27 15 21 7 -7 6 -22 -1 -44z"/>
<path d="M899 803 c16 -21 31 -46 33 -56 5 -26 22 -22 26 6 2 14 14 35 28 48
13 12 24 26 24 31 0 15 -24 8 -48 -14 l-24 -23 -18 23 c-10 12 -26 22 -35 22
-12 0 -10 -8 14 -37z"/>
<path d="M1157 822 c-51 -56 30 -131 91 -85 34 25 39 56 13 82 -27 27 -82 28
-104 3z m90 -28 c9 -24 -21 -48 -51 -40 -25 6 -35 33 -19 49 13 14 64 7 70 -9z"/>
<path d="M1442 824 c-26 -18 -29 -56 -6 -78 40 -41 119 -25 119 24 0 22 -5 25
-37 28 -28 2 -38 -1 -38 -12 0 -8 11 -16 28 -18 22 -4 24 -6 9 -12 -9 -5 -29
-5 -43 -2 -19 5 -25 12 -22 29 2 18 10 23 46 25 28 2 42 8 42 18 0 19 -69 19
-98 -2z"/>
<path d="M1723 785 c-26 -52 -26 -82 -1 -57 15 15 74 16 83 2 4 -6 10 -8 15
-5 13 8 -41 115 -57 115 -7 0 -25 -25 -40 -55z m46 -14 c-15 -5 -22 6 -14 19
6 9 10 9 16 -1 5 -8 4 -15 -2 -18z"/>
</g>
</svg>
